<svg width="144" height="144" viewBox="0 0 144 144" fill="none" xmlns="http://www.w3.org/2000/svg">
<path d="M84.0001 12C70.7671 12 60.0001 22.767 60.0001 36C60.0001 49.233 70.7671 60 84.0001 60C97.2331 60 108 49.233 108 36C108 22.767 97.2331 12 84.0001 12ZM70.465 77.6191C69.8955 77.6089 69.315 77.7056 68.754 77.9238C55.158 83.2278 45.6127 94.8378 42.8497 108.674C47.3922 111.944 50.4518 117.107 50.9064 123H44.8478C44.2066 117.3 40.0575 112.674 34.5763 111.387L26.6427 92.7363C26.299 91.8965 25.7093 91.1802 24.9512 90.6814C24.1931 90.1826 23.302 89.9247 22.3947 89.9414C21.652 89.9542 20.9241 90.1507 20.2758 90.5132C19.6276 90.8757 19.0791 91.3931 18.6794 92.0191C18.2796 92.6451 18.0411 93.3603 17.9849 94.1009C17.9287 94.8415 18.0568 95.5846 18.3575 96.2637L25.3009 112.576C21.4112 114.609 18.6642 118.451 18.1525 123H13.5001C12.9038 122.992 12.3118 123.102 11.7584 123.324C11.2051 123.546 10.7014 123.877 10.2768 124.295C9.8521 124.714 9.51489 125.213 9.28473 125.763C9.05456 126.313 8.93604 126.904 8.93604 127.5C8.93604 128.096 9.05456 128.687 9.28473 129.237C9.51489 129.787 9.8521 130.286 10.2768 130.705C10.7014 131.123 11.2051 131.454 11.7584 131.676C12.3118 131.898 12.9038 132.008 13.5001 132H130.5C131.096 132.008 131.688 131.898 132.242 131.676C132.795 131.454 133.299 131.123 133.723 130.705C134.148 130.286 134.485 129.787 134.716 129.237C134.946 128.687 135.064 128.096 135.064 127.5C135.064 126.904 134.946 126.313 134.716 125.763C134.485 125.213 134.148 124.714 133.723 124.295C133.299 123.877 132.795 123.546 132.242 123.324C131.688 123.102 131.096 122.992 130.5 123H126V117C126 99.606 115.5 84.2658 99.2462 77.9238C96.9992 77.0478 94.4495 78.1005 93.4865 80.3145L84.0001 102L74.5138 80.3145C73.7893 78.6562 72.1733 77.6498 70.465 77.6191Z" fill="#5EA8B3"/>
</svg>
