<svg width="144" height="144" viewBox="0 0 144 144" fill="none" xmlns="http://www.w3.org/2000/svg">
<path d="M36 15C34.86 15 33.7814 15.4212 32.9414 16.2012L18 30H126L111.059 16.2012C110.219 15.4212 109.14 15 108 15H36ZM12 39V45.9023C12 55.3223 19.6198 63 29.0098 63C38.3698 63 45.9902 55.3223 45.9902 45.9023V39H12ZM54.9902 39V45.9023C54.9902 55.3223 62.64 63 72 63C81.36 63 89.0098 55.3223 89.0098 45.9023V39H54.9902ZM98.0098 39V45.9023C98.0098 51.8243 101.023 57.051 105.586 60.123C106.387 60.069 107.184 60 108 60C112.287 60 116.383 60.7938 120.199 62.1738C127.042 59.9568 132 53.4983 132 45.9023V39H98.0098ZM50.4902 60.5684C45.8102 67.4684 37.9198 72 29.0098 72C25.0798 72 21.36 71.1291 18 69.5391V127.5C18 129.984 20.016 132 22.5 132H31.5C33.984 132 36 129.984 36 127.5V87C36 85.35 37.35 84 39 84H63C64.65 84 66 85.35 66 87V127.5C66 129.984 68.016 132 70.5 132H90.252C80.76 121.41 72 108.315 72 96C72 85.119 76.8713 75.3716 84.5273 68.7656C80.8073 70.8236 76.542 72 72 72C63.06 72 55.1702 67.4684 50.4902 60.5684ZM108 66C91.458 66 78 79.458 78 96C78 110.211 93.0563 126.895 102.029 135.574C103.706 137.194 105.849 138.006 108 138.006C110.148 138.006 112.297 137.194 113.971 135.574C122.944 126.895 138 110.211 138 96C138 79.458 124.542 66 108 66ZM108 87C112.971 87 117 91.029 117 96C117 100.971 112.971 105 108 105C103.029 105 99 100.971 99 96C99 91.029 103.029 87 108 87Z" fill="#5EA8B3"/>
</svg>
