<svg width="144" height="144" viewBox="0 0 144 144" fill="none" xmlns="http://www.w3.org/2000/svg">
<path d="M115.112 14.0112C114.068 13.9547 113.015 14.1128 111.999 14.484L110.48 14.9946L11.5797 49.9192C10.0954 50.4357 8.87122 51.3734 8 52.5354H33.3286L104.575 27.3569C105.995 31.327 109.706 33.8123 113.707 33.8123C114.772 33.8123 115.869 33.6512 116.934 33.2638L123.74 52.5354H134L122.839 20.9015L122.291 19.3885C121.581 17.3551 120.125 15.7415 118.156 14.8055C117.188 14.3375 116.157 14.0676 115.112 14.0112ZM105.419 46.4268C104.58 46.3758 103.714 46.4938 102.867 46.7924C100.35 47.6961 98.7359 50.0178 98.6068 52.5354H111.444C111.444 51.9222 111.349 51.3394 111.123 50.7261C110.228 48.2085 107.939 46.5796 105.419 46.4268ZM72.1123 46.5654C70.4667 46.5654 68.7911 46.8552 67.1777 47.4039C64.3382 48.4045 61.9492 50.2115 60.239 52.5354H84.6348C81.4081 48.759 76.7911 46.5654 72.1123 46.5654ZM18.5499 62.2185C14.1499 62.2185 10.4831 65.8865 10.4831 70.2877V121.931C10.4831 126.332 14.1499 130 18.5499 130H125.032C129.432 130 133.099 126.332 133.099 121.931V70.2877C133.099 65.8865 129.432 62.2185 125.032 62.2185H18.5499ZM29.8434 71.9016H113.738C113.738 77.2498 118.072 81.5846 123.419 81.5846V110.634C118.072 110.634 113.738 114.969 113.738 120.317H29.8434C29.8434 114.969 25.5099 110.634 20.1633 110.634V81.5846C25.5099 81.5846 29.8434 77.2498 29.8434 71.9016ZM71.7909 78.3569C67.512 78.3569 63.4084 80.2273 60.3827 83.5565C57.3571 86.8857 55.6573 91.401 55.6573 96.1092C55.6573 100.817 57.3571 105.333 60.3827 108.662C63.4084 111.991 67.512 113.862 71.7909 113.862C76.0698 113.862 80.1735 111.991 83.1991 108.662C86.2248 105.333 87.9246 100.817 87.9246 96.1092C87.9246 91.401 86.2248 86.8857 83.1991 83.5565C80.1735 80.2273 76.0698 78.3569 71.7909 78.3569ZM37.9103 89.6539C36.1987 89.6539 34.5572 90.334 33.347 91.5446C32.1367 92.7552 31.4568 94.3972 31.4568 96.1092C31.4568 97.8213 32.1367 99.4633 33.347 100.674C34.5572 101.885 36.1987 102.565 37.9103 102.565C39.6218 102.565 41.2633 101.885 42.4736 100.674C43.6838 99.4633 44.3637 97.8213 44.3637 96.1092C44.3637 94.3972 43.6838 92.7552 42.4736 91.5446C41.2633 90.334 39.6218 89.6539 37.9103 89.6539ZM105.672 89.6539C103.96 89.6539 102.319 90.334 101.108 91.5446C99.898 92.7552 99.2181 94.3972 99.2181 96.1092C99.2181 97.8213 99.898 99.4633 101.108 100.674C102.319 101.885 103.96 102.565 105.672 102.565C107.383 102.565 109.025 101.885 110.235 100.674C111.445 99.4633 112.125 97.8213 112.125 96.1092C112.125 94.3972 111.445 92.7552 110.235 91.5446C109.025 90.334 107.383 89.6539 105.672 89.6539Z" fill="#5EA8B3"/>
</svg>
