<svg xmlns="http://www.w3.org/2000/svg" fill="none" viewBox="0 0 100 100">
  <g fill="#000">
    <circle cx="50.01" cy="50" r="49.94" fill="#45414d" class="fills"/>
    <defs>
      <radialGradient id="a" cx="0" cy="0" r="1" gradientTransform="rotate(90 0 50) scale(47.26)" gradientUnits="userSpaceOnUse">
        <stop offset=".63" stop-color="#F5F5F5"/>
        <stop offset="1" stop-color="#F2F2F2"/>
      </radialGradient>
    </defs>
    <circle cx="50.01" cy="50" r="47.26" fill="url(#a)" class="fills"/>
    <circle cx="50" cy="50" r="47.5" fill="none" class="fills"/>
    <g fill="none" class="strokes">
      <g class="inner-stroke-shape">
        <defs>
          <clipPath id="c">
            <use href="#b"/>
          </clipPath>
          <circle id="b" cx="50" cy="50" r="47.5" fill="none" stroke="#2793a2" stroke-opacity="1" stroke-width="4"/>
        </defs>
        <use clip-path="url('#c')" href="#b"/>
      </g>
    </g>
    <path fill="#45414d" d="m53.03 29.05-5.81-5.83.05-.1.05-.03c9.74.01 19.47 0 29.22 0l.4.03v28.7l-6.21-6.19c-.66 5.22-3.1 9.23-7.52 11.9a14.84 14.84 0 0 1-9.97 2.05 15.37 15.37 0 0 1-13.31-14.51 14.9 14.9 0 0 1 3.46-10.48 15.33 15.33 0 0 1 9.64-5.55Z" class="fills"/>
    <path fill="#2793a2" d="M58.2 76.9c8.2-4.1 14.16-10.42 18.66-18.45l.04.43V71.5c0 2.04-.91 3.59-2.63 4.65a4.99 4.99 0 0 1-2.55.74c-4.52.03-9.01.02-13.52.02ZM23.1 40.85l-.03-.6V28.7c0-1.11.23-2.18.85-3.12a5.03 5.03 0 0 1 4.28-2.42c4.16-.06 8.3-.02 12.52.06l-.62.37a46.7 46.7 0 0 0-9.1 6.66 35.02 35.02 0 0 0-7.65 10.2c-.05.08-.1.19-.24.4ZM36.22 76.9l-.41.02h-7.33a5.35 5.35 0 0 1-5.4-5.51v-6.96c0-.16.02-.31.04-.6 3.08 5.72 7.4 10 13.1 13.05Z" class="fills"/>
  </g>
</svg>
