<svg xmlns="http://www.w3.org/2000/svg" fill="none" viewBox="0 0 476 100">
  <g fill="#000">
    <path fill="#474747" d="M56.58 11.07C52.78 7.34 49.18 3.8 45.6.25c.06-.12.06-.15.1-.19.03-.03.06-.06.1-.06 18.38.03 36.76 0 55.17 0 .23 0 .46.03.75.06v53.31A3811.76 3811.76 0 0 0 90 41.9c-1.24 9.7-5.85 17.13-14.2 22.1a28.41 28.41 0 0 1-18.83 3.8c-13.61-1.81-24.43-12.82-25.14-26.95a27.4 27.4 0 0 1 6.53-19.46c4.64-5.65 10.68-9 18.22-10.3Z" class="fills"/>
    <path fill="#f5f5f5" d="M66.35 99.99c15.5-7.63 26.73-19.37 35.24-34.3.03.48.07.64.07.8v23.45c0 3.8-1.73 6.66-4.97 8.64a9.52 9.52 0 0 1-4.81 1.37c-8.54.07-17.02.04-25.53.04Zm-66.28-67c-.04-.54-.07-.83-.07-1.12V10.43c0-2.07.42-4.05 1.6-5.8C3.5 1.79 6.23.16 9.67.13c7.87-.1 15.7-.03 23.65.13l-1.17.67A88.2 88.2 0 0 0 14.97 13.3C9.07 18.82 4.06 25.01.52 32.25c-.1.16-.2.36-.46.74ZM24.8 99.95c-.42.04-.61.04-.78.04-4.6 0-9.22.03-13.83 0a9.91 9.91 0 0 1-8.93-5.1A9.82 9.82 0 0 1 0 89.74V76.81c0-.28.03-.57.07-1.11A58.39 58.39 0 0 0 24.8 99.95ZM273 48.72c-.1 10.38-1.14 19.3-4.45 27.86-2.42 6.24-5.92 11.77-11.23 16.05-7.53 6.1-16.24 8.14-25.76 7.12-12.08-1.26-20.27-8.05-25.81-18.28-3.55-6.6-5.35-13.72-6.2-21.07-1.1-9.54-.62-19.03 2.03-28.28 2.27-8.05 6.02-15.35 12.27-21.17 7.2-6.74 15.86-9.58 25.81-8.83 11.93.93 20.36 7.07 26.1 17.07 4.07 7.11 6 14.83 6.77 22.88.28 2.65.37 5.3.47 6.65Zm-21.64 2.24c0-2.47.14-4.94-.05-7.35a57.08 57.08 0 0 0-1.19-7.5c-.9-4.18-2.31-8.18-5.06-11.62-2.32-2.98-5.35-4.7-9.24-4.56-4.17.14-7.15 2.33-9.47 5.54a26.51 26.51 0 0 0-4.07 9.3c-2.47 9.81-2.51 19.72-.71 29.63.85 4.7 2.36 9.2 5.5 13.07 5.01 6.23 13.4 6.23 18.18-.19a26.45 26.45 0 0 0 3.55-6.88c2.27-6.28 2.8-12.84 2.56-19.45ZM476 99h-21.02a18072.69 18072.69 0 0 1-5.18-21.96c-6.74-.1-13.48 0-20.4-.05l-4.85 21.96H404c7.83-31.71 15.66-63.28 23.45-94.95h25.77c7.6 31.57 15.14 63.15 22.78 95Zm-36.21-76.47h-.29c-2.47 12.53-4.93 25.07-7.45 37.8h15.24a8368.31 8368.31 0 0 1-7.5-37.8ZM281 94.09c1.14-5.91 2.23-11.82 3.42-17.96.76.32 1.43.56 2.04.83 5.38 2.36 10.99 3.83 16.88 3.83 2.19 0 4.47-.23 6.51-.87 6.7-2.08 8.89-9.8 4.18-14.87a25.93 25.93 0 0 0-5.7-4.34c-3.7-2.21-7.65-4.01-11.36-6.23a34.35 34.35 0 0 1-11.27-10.76c-7.8-11.9-3.9-32.17 13.36-39.05 6.9-2.72 14.02-3.1 21.3-2.3a35.9 35.9 0 0 1 13.12 3.82 9868.48 9868.48 0 0 0-3.76 17.6 54.74 54.74 0 0 1-2.09-.88 33.35 33.35 0 0 0-14.83-2.87c-2.24.1-4.37.6-6.32 1.71-4.57 2.68-5.52 8.59-1.9 12.37a16.36 16.36 0 0 0 3.75 2.96c2.57 1.52 5.23 2.9 7.94 4.24 4.33 2.17 8.5 4.57 12.07 7.9 6.99 6.55 9.41 14.68 8.46 23.86-.71 6.88-3.47 12.84-8.7 17.6-4.51 4.1-9.93 6.36-15.92 7.47-9.17 1.7-18.2.78-27-2.26-.9-.33-1.76-.74-2.61-1.11-.57-.1-1-.37-1.57-.7Zm-91.58-14.97c.85 5.92 1.7 11.6 2.54 17.47-.75.33-1.37.65-2.07.89-10.47 3.12-21.03 3.58-31.45.04-10.7-3.63-17.69-11.18-22.02-21.29a55.97 55.97 0 0 1-4.25-18.96c-.52-8.29.1-16.44 2.5-24.45 3.07-10.16 8.63-18.59 17.78-24.46a40.02 40.02 0 0 1 20.23-6.29c5.51-.23 10.98.05 16.26 1.73 1.32.41 2.6.97 4.06 1.53-1.23 5.92-2.4 11.7-3.63 17.66-.8-.28-1.37-.47-1.98-.7a28.76 28.76 0 0 0-14.43-1.68c-6.41.93-11.27 4.2-14.71 9.55-2.69 4.24-4.06 8.95-4.58 13.88-.75 7.08-.7 14.12 1.47 21.01a25.1 25.1 0 0 0 1.6 4.06c4.1 8.66 11.7 12.57 21.12 12.2 3.78-.19 7.5-.84 11.56-2.19ZM382.65 99h-20.3c-.34-2.5-.1-5.02-.15-7.48-.04-2.5 0-5.06 0-7.57v-61H342V4h61v18.86c-6.69.23-13.37-.05-20.3.14-.05 25.36-.05 50.59-.05 76Z" class="fills"/>
  </g>
</svg>
