<svg xmlns="http://www.w3.org/2000/svg" fill="none" viewBox="0 0 474 100">
  <g fill="#000">
    <path fill="#474747" d="M55.94 11.07C52.2 7.34 48.62 3.8 45.1.26c.06-.13.06-.16.1-.2s.06-.06.1-.06c18.17.03 36.35 0 54.55 0 .23 0 .45.03.74.06v53.31A3905.29 3905.29 0 0 0 89 41.9c-1.22 9.7-5.78 17.13-14.03 22.1a27.84 27.84 0 0 1-18.63 3.8 28.61 28.61 0 0 1-24.86-26.95 27.59 27.59 0 0 1 6.46-19.46c4.59-5.65 10.56-9 18.01-10.3Z" class="fills"/>
    <path fill="#2793a2" d="M65.61 99.99c15.32-7.63 26.43-19.37 34.84-34.3.04.48.07.64.07.8v23.45c0 3.8-1.7 6.66-4.92 8.64a9.34 9.34 0 0 1-4.75 1.37c-8.44.07-16.83.04-25.24.04Zm-65.55-67c-.03-.54-.06-.83-.06-1.12V10.43c0-2.07.42-4.05 1.57-5.8 1.9-2.84 4.6-4.47 8-4.5C17.34.03 25.08.1 32.95.26l-1.16.67A87.23 87.23 0 0 0 14.81 13.3C8.96 18.82 4 25.01.5 32.25c-.1.16-.19.36-.45.74Zm24.48 66.96c-.42.04-.61.04-.77.04-4.56 0-9.13.03-13.69 0a9.79 9.79 0 0 1-8.83-5.1A9.91 9.91 0 0 1 0 89.74V76.81c0-.28.03-.57.06-1.11a58.06 58.06 0 0 0 24.48 24.24Z" class="fills"/>
    <path fill="#474747" d="M274 48.72c-.1 10.38-1.12 19.3-4.4 27.86-2.38 6.24-5.83 11.77-11.07 16.05-7.42 6.1-16.02 8.14-25.4 7.12-11.92-1.26-20-8.05-25.47-18.28-3.5-6.6-5.28-13.72-6.12-21.07-1.08-9.54-.6-19.03 2-28.28 2.25-8.05 5.94-15.35 12.1-21.17 7.1-6.74 15.66-9.58 25.47-8.83 11.77.93 20.09 7.07 25.74 17.07 4.02 7.11 5.93 14.83 6.68 22.88.28 2.65.37 5.3.47 6.65Zm-21.35 2.24c0-2.47.14-4.94-.05-7.35a57.89 57.89 0 0 0-1.17-7.5c-.88-4.18-2.28-8.18-5-11.62-2.28-2.98-5.27-4.7-9.1-4.56-4.12.14-7.06 2.33-9.35 5.54a26.7 26.7 0 0 0-4.02 9.3c-2.43 9.81-2.47 19.72-.7 29.63.84 4.7 2.34 9.2 5.42 13.07 4.95 6.23 13.22 6.23 17.94-.19a26.59 26.59 0 0 0 3.5-6.88c2.25-6.28 2.76-12.84 2.53-19.45ZM474 99h-20.73a17596.57 17596.57 0 0 1-5.1-21.96c-6.65-.1-13.3 0-20.13-.05l-4.78 21.96H403c7.72-31.71 15.44-63.28 23.12-94.95h25.42c7.48 31.57 14.92 63.15 22.46 95Zm-35.71-76.47h-.28a41834.17 41834.17 0 0 1-7.35 37.8h15.03a8567.07 8567.07 0 0 1-7.4-37.8ZM282 95.03c1.12-5.96 2.2-11.93 3.36-18.13.75.32 1.4.56 2 .83 5.28 2.38 10.8 3.88 16.58 3.88a21 21 0 0 0 6.4-.9 9.14 9.14 0 0 0 4.1-15c-1.54-1.73-3.59-3.13-5.6-4.4-3.64-2.23-7.51-4.05-11.15-6.29a34.18 34.18 0 0 1-11.07-10.86c-7.66-12.04-3.83-32.51 13.12-39.46 6.77-2.75 13.77-3.13 20.91-2.33 4.44.46 8.69 1.63 12.89 3.87L329.84 24a54.12 54.12 0 0 1-2.04-.89 31.97 31.97 0 0 0-14.57-2.9c-2.2.1-4.3.62-6.2 1.73a8.09 8.09 0 0 0-1.87 12.5 16.16 16.16 0 0 0 3.68 2.99c2.52 1.54 5.14 2.94 7.8 4.29 4.25 2.2 8.35 4.62 11.86 7.97 6.86 6.63 9.24 14.84 8.3 24.12-.7 6.95-3.4 12.96-8.54 17.77-4.43 4.15-9.76 6.43-15.64 7.55-9 1.73-17.88.8-26.51-2.28-.89-.33-1.73-.75-2.57-1.12-.56-.1-.98-.38-1.54-.7Zm-91.53-15.9 2.51 17.46c-.74.33-1.34.65-2.04.89-10.3 3.12-20.69 3.58-30.94.04-10.53-3.63-17.39-11.18-21.66-21.29a56.75 56.75 0 0 1-4.17-18.96c-.51-8.29.1-16.44 2.46-24.45 3.01-10.16 8.48-18.59 17.48-24.46a38.9 38.9 0 0 1 19.9-6.29c5.43-.23 10.8.05 16 1.73 1.3.41 2.55.97 3.99 1.53L190.43 23c-.79-.28-1.35-.47-1.95-.7a27.85 27.85 0 0 0-14.2-1.68c-6.3.93-11.08 4.2-14.46 9.55-2.65 4.24-4 8.95-4.5 13.88-.74 7.08-.7 14.12 1.44 21.01a25.17 25.17 0 0 0 1.57 4.06c4.04 8.66 11.5 12.57 20.78 12.2 3.71-.19 7.38-.84 11.36-2.19ZM381.99 99h-19.96c-.33-2.5-.1-5.02-.15-7.48-.04-2.5 0-5.06 0-7.57v-61H342V4h60v18.86c-6.58.23-13.15-.05-19.97.14-.05 25.36-.05 50.59-.05 76Z" class="fills"/>
  </g>
</svg>
