<svg xmlns="http://www.w3.org/2000/svg" fill="none" viewBox="0 0 354 100">
  <g fill="#000">
    <path fill="#474747" d="M55.94 11.07C52.2 7.34 48.62 3.8 45.1.26c.06-.13.06-.16.1-.2s.06-.06.1-.06c18.17.03 36.35 0 54.55 0 .23 0 .45.03.74.06v53.31A3905.29 3905.29 0 0 0 89 41.9c-1.22 9.7-5.78 17.13-14.03 22.1a27.84 27.84 0 0 1-18.63 3.8 28.61 28.61 0 0 1-24.86-26.95 27.59 27.59 0 0 1 6.46-19.46c4.59-5.65 10.56-9 18.01-10.3Z" class="fills"/>
    <path fill="#2793a2" d="M65.61 99.99c15.32-7.63 26.43-19.37 34.84-34.3.04.48.07.64.07.8v23.45c0 3.8-1.7 6.66-4.92 8.64a9.34 9.34 0 0 1-4.75 1.37c-8.44.07-16.83.04-25.24.04Zm-65.55-67c-.03-.54-.06-.83-.06-1.12V10.43c0-2.07.42-4.05 1.57-5.8 1.9-2.84 4.6-4.47 8-4.5C17.34.03 25.08.1 32.95.26l-1.16.67A87.23 87.23 0 0 0 14.81 13.3C8.96 18.82 4 25.01.5 32.25c-.1.16-.19.36-.45.74Zm24.48 66.96c-.42.04-.61.04-.77.04-4.56 0-9.13.03-13.69 0a9.79 9.79 0 0 1-8.83-5.1A9.91 9.91 0 0 1 0 89.74V76.81c0-.28.03-.57.06-1.11a58.06 58.06 0 0 0 24.48 24.24Z" class="fills"/>
    <path fill="#474747" d="M214.17 34.27c-.06 7.1-.77 13.23-3.02 19.1-1.64 4.28-4.01 8.08-7.6 11.01-5.11 4.18-11.02 5.59-17.48 4.88-8.19-.86-13.74-5.52-17.5-12.54-2.4-4.53-3.63-9.4-4.2-14.45a50 50 0 0 1 1.37-19.4c1.54-5.51 4.08-10.52 8.32-14.51 4.88-4.63 10.76-6.57 17.5-6.06 8.1.64 13.81 4.85 17.7 11.7 2.76 4.89 4.08 10.18 4.6 15.7.19 1.82.25 3.64.31 4.57ZM199.5 35.8c0-1.7.1-3.39-.04-5.04a39.68 39.68 0 0 0-.8-5.14c-.61-2.87-1.57-5.62-3.43-7.98-1.58-2.04-3.63-3.22-6.27-3.12-2.82.1-4.85 1.6-6.42 3.8a18.3 18.3 0 0 0-2.76 6.37 48.2 48.2 0 0 0-.48 20.33c.57 3.22 1.6 6.31 3.72 8.96 3.4 4.28 9.09 4.28 12.33-.13a18.2 18.2 0 0 0 2.41-4.72c1.54-4.3 1.9-8.8 1.74-13.33Zm152.22 32.63h-14.23a13966.34 13966.34 0 0 1-3.5-15.09c-4.56-.06-9.12 0-13.8-.03-1.1 5.07-2.2 10.02-3.28 15.1H303c5.3-21.8 10.59-43.5 15.86-65.25h17.44l15.41 65.27Zm-24.5-52.54h-.2l-5.04 25.97h10.31c-1.73-8.74-3.4-17.36-5.07-25.97ZM219.72 65.9c.78-4.08 1.52-8.16 2.32-12.4.51.22.96.37 1.38.57a27.75 27.75 0 0 0 11.4 2.65c1.48 0 3.02-.16 4.4-.61a6.24 6.24 0 0 0 2.83-10.27 17.76 17.76 0 0 0-3.86-3c-2.5-1.54-5.17-2.78-7.67-4.31a23.46 23.46 0 0 1-7.61-7.43c-5.27-8.24-2.64-22.24 9.02-27 4.66-1.88 9.48-2.13 14.39-1.59 3.05.32 5.97 1.12 8.86 2.65-.83 3.99-1.67 7.97-2.53 12.15a38.89 38.89 0 0 1-1.42-.6 22.08 22.08 0 0 0-10.02-1.98c-1.5.06-2.95.41-4.27 1.18a5.51 5.51 0 0 0-1.28 8.55c.74.8 1.6 1.5 2.54 2.04a78.46 78.46 0 0 0 5.36 2.94c2.92 1.5 5.75 3.16 8.16 5.45 4.72 4.53 6.35 10.15 5.71 16.5a18.58 18.58 0 0 1-5.87 12.15c-3.06 2.84-6.72 4.4-10.76 5.17a34.5 34.5 0 0 1-18.25-1.56c-.6-.23-1.18-.51-1.76-.77-.39-.06-.68-.25-1.06-.48ZM157.4 55.13l1.74 11.96c-.52.23-.93.45-1.41.6-7.13 2.15-14.33 2.47-21.43.04-7.29-2.49-12.04-7.66-15-14.58a38.5 38.5 0 0 1-2.88-12.98 47.62 47.62 0 0 1 1.7-16.75c2.09-6.96 5.88-12.73 12.1-16.75A27.14 27.14 0 0 1 146 2.37c3.76-.17 7.49.02 11.08 1.17.9.29 1.77.67 2.76 1.05l-2.47 12.1c-.54-.2-.93-.32-1.35-.48a19.5 19.5 0 0 0-9.82-1.15 13.78 13.78 0 0 0-10.02 6.54 21.76 21.76 0 0 0-3.12 9.5c-.51 4.85-.48 9.67 1 14.4.28.95.64 1.88 1.09 2.77 2.8 5.93 7.96 8.61 14.38 8.36a29 29 0 0 0 7.87-1.5Zm131.22 13.3h-13.64c-.23-1.72-.07-3.44-.1-5.13-.03-1.73 0-3.48 0-5.2V16.2h-13.59v-13h41.01v12.95c-4.5.16-8.99-.03-13.64.1-.04 17.42-.04 34.74-.04 52.2Zm.23 17.74v11.17h-1.48V82.09c.1-.03.16-.1.26-.13L297.8 93.6c.45-1.46.2-2.74.22-3.95.04-1.25 0-2.49 0-3.7v-3.9h1.42v15.6l-2.73-3.02c-.87-.96-1.7-1.95-2.57-2.9-.8-.93-1.64-1.86-2.48-2.82l-2.5-2.87c-.1.04-.2.1-.32.13Zm-12.97 11.65a8.04 8.04 0 0 1-8.26-8.01 8.12 8.12 0 0 1 8.13-8.33 8.17 8.17 0 1 1 .13 16.33Zm6.58-8.17a6.56 6.56 0 0 0-6.71-6.64 6.6 6.6 0 0 0-6.56 6.83 6.55 6.55 0 0 0 6.65 6.54 6.52 6.52 0 0 0 6.62-6.73Zm-75.63.1a8.03 8.03 0 0 1-8.16 8.07 8.14 8.14 0 0 1-8.28-8.14 8.16 8.16 0 0 1 8.28-8.17 8.05 8.05 0 0 1 8.16 8.23Zm-1.58 0a6.6 6.6 0 0 0-6.61-6.77 6.6 6.6 0 0 0-6.68 6.7 6.5 6.5 0 0 0 6.52 6.67 6.53 6.53 0 0 0 6.77-6.6Zm123.8 7.65V82c1.74-.1 3.47-.26 5.14.15 2.83.7 3.76 3.93 1.8 6.1-.19.22-.44.38-.74.67.3.19.52.35.78.47a3.85 3.85 0 0 1 2.24 4.15c-.19 1.82-1.25 2.97-2.95 3.57-.42.16-.87.26-1.32.3h-4.94Zm1.48-1.37c1.42-.1 2.67-.06 3.86-.26a2.78 2.78 0 0 0 2.34-2.55c.1-1.21-.67-2.36-1.93-2.87-1.38-.54-2.79-.45-4.27-.32v6Zm.07-12.57v5.07c1.12-.12 2.12-.16 3.05-.38a2.42 2.42 0 0 0 1.8-2.58c-.1-1.15-.84-1.92-2.15-2.08-.87-.13-1.77-.03-2.7-.03Zm-120.3-1.44c2.05 0 4.04-.12 6.04.04a3.76 3.76 0 0 1 3.56 3.86c.03 2.13-1.19 3.6-3.37 4.05-.58.13-1.16.19-1.93.35a756.88 756.88 0 0 0 5.33 6.89c-1.09.38-1.76.2-2.38-.67-1.38-1.88-2.82-3.7-4.27-5.52-.35-.45-.64-1.05-1.57-.57v6.89h-1.28c-.39-.32-.45-13.12-.13-15.32Zm1.44 6.67c1.64.1 3.18.26 4.69-.16a2.52 2.52 0 0 0 1.9-2.52 2.5 2.5 0 0 0-1.9-2.4c-1.54-.34-3.11-.21-4.72-.12.03 1.79.03 3.45.03 5.2Zm53.22-3.89c-.39.26-.68.51-1.1.8a7.1 7.1 0 0 0-6.23-2.56 6.69 6.69 0 0 0-4.46 2.11 6.75 6.75 0 0 0-.06 9.06c2.7 2.94 6.68 2.87 10.85-.19.2.13.39.22.58.38.16.13.26.29.38.42-2.28 3.22-7 3.54-9.92 2.52-3.27-1.15-5.27-4.28-5.17-8.04a7.91 7.91 0 0 1 5.72-7.37c3.24-1.02 7.54-.1 9.4 2.87Zm54.2-2.84c2.38 5.07 4.79 10.18 7.17 15.28-1.48.26-1.48.29-2.06-.86l-1.96-4.05h-6.16c-.64 0-.84.41-1.06.9-.68 1.36-1.32 2.74-2 4.14h-1.66l7.29-15.35c.16-.06.29-.06.45-.06Zm-.03 3.51h-.35c-.8 1.72-1.64 3.41-2.54 5.3h5.37l-2.48-5.3Zm-84.55-3.67 7.29 15.5c-.58.07-1 .1-1.39.13-.16-.16-.28-.25-.32-.38-.64-1.27-1.25-2.58-1.89-3.86-.23-.48-.45-.86-1.06-.86-2.02.03-4.08 0-6.13 0l-2.45 5.04h-1.38c.13-1.08 6.17-13.97 7.33-15.57Zm-2.83 9.03c1.86.03 3.5.16 5.36-.1-.9-1.88-1.63-3.6-2.7-5.52-.93 1.98-1.73 3.7-2.66 5.62ZM126 81.93a4770.47 4770.47 0 0 0 7.22 15.38l-1.57.1c-.84-1.73-1.64-3.36-2.47-5.11h-6.1c-.62 0-.87.35-1.1.83a242.85 242.85 0 0 1-2.02 4.2h-1.67l7.32-15.37c.13-.03.26-.03.39-.03Zm-.2 3.19-2.7 5.65h5.34a625.07 625.07 0 0 0-2.64-5.65Zm33.4 3.19h7.13v1.43h-7.13v6.16h7.07c.06.51.1.9.13 1.37h-8.74V82.15c1.03-.32 6.33-.41 8.67-.13v1.34h-7.16c.03 1.66.03 3.16.03 4.95Zm-14.16 6.35 1.19-.74c.16.13.29.2.38.32.52.55.93 1.18 1.51 1.63 1.1.83 2.73.6 3.7-.35.96-.99 1.05-2.33.06-3.48-.64-.76-1.41-1.4-2.15-2.04-.77-.7-1.67-1.28-2.41-2.01-1.54-1.53-1.67-3.76-.35-5.2a4 4 0 0 1 5.3-.38c.57.44 1.02 1.02 1.63 1.6l-1.28 1.01c-.36-.41-.64-.83-1-1.18a2.53 2.53 0 0 0-2.21-.67c-1.32.2-2.12 1.37-1.67 2.59.22.6.7 1.18 1.18 1.66.62.57 1.35 1.02 2 1.56.64.54 1.31 1.05 1.9 1.69 1.76 1.95 1.79 4.3.05 5.97a4.62 4.62 0 0 1-6.35-.07c-.52-.54-.9-1.18-1.48-1.91Zm33.53-.03c.48-.3.8-.48 1.12-.7.16.12.29.19.39.31.41.48.77 1.02 1.28 1.44 1.16.99 2.9.86 3.95-.2 1.03-1.01 1.06-2.35-.03-3.6-.64-.73-1.41-1.37-2.19-2.04-.77-.7-1.66-1.28-2.37-2-1.45-1.48-1.54-3.58-.35-4.99a3.95 3.95 0 0 1 5.13-.67c.68.45 1.22 1.12 1.9 1.76l-1.32 1.05c-.35-.41-.64-.83-1-1.18a2.53 2.53 0 0 0-2.21-.67c-1.32.2-2.15 1.37-1.67 2.58.3.7.84 1.34 1.41 1.85.84.77 1.8 1.4 2.7 2.14.39.32.74.67 1.06 1.06 1.64 1.88 1.64 4.14.06 5.74a4.67 4.67 0 0 1-6.13.35c-.26-.22-.54-.45-.74-.73a54.98 54.98 0 0 0-1-1.5Zm-10.82-.07c.48-.25.8-.45 1.09-.6.64.67 1.15 1.34 1.8 1.85.96.76 2.34.7 3.34 0 .9-.61 1.38-1.7 1.02-2.72a4.64 4.64 0 0 0-1.09-1.72c-.83-.83-1.8-1.56-2.7-2.33-.48-.41-1.02-.8-1.44-1.27-1.32-1.4-1.45-3.51-.32-4.88a3.9 3.9 0 0 1 4.88-.9c.8.45 1.44 1.18 2.25 1.85-.48.42-.77.7-1.13 1-.19-.14-.32-.17-.41-.26-.42-.35-.78-.8-1.2-1.12-.96-.64-2.3-.51-3.01.22-.77.8-.77 1.98.1 2.97.44.51 1.02.93 1.54 1.37.96.8 1.99 1.5 2.85 2.4 2.03 2.04 2.03 4.53.1 6.25a4.64 4.64 0 0 1-6.55-.54 8.18 8.18 0 0 1-.64-.83c-.2-.16-.3-.39-.48-.74ZM142.9 84l-1.22 1c-.35-.46-.61-.93-1-1.19a4.01 4.01 0 0 0-1.73-.67c-1.8-.13-2.8 1.6-1.86 3.13.29.5.74.92 1.19 1.3.67.58 1.44 1.09 2.11 1.63.58.48 1.16.96 1.64 1.53 1.7 1.95 1.67 4.18-.03 5.84a4.63 4.63 0 0 1-6.13.2 7.11 7.11 0 0 1-.84-.87c-.26-.35-.48-.73-.8-1.21l1.03-.8c.19.16.32.22.41.35.42.48.77 1.02 1.29 1.44 1.15.96 2.92.86 3.92-.2.96-.98 1.02-2.45 0-3.6-.84-.92-1.83-1.66-2.77-2.49-.6-.5-1.25-.99-1.8-1.53a3.78 3.78 0 0 1-.44-4.88 3.94 3.94 0 0 1 4.97-.96A5.3 5.3 0 0 1 142.9 84Zm164.01 13.34h-1.48V83.46h-3.4c-.07-.54-.13-.9-.2-1.21.46-.42 5.63-.51 8.48-.23.04.39.04.77.07 1.38h-3.5c.03 4.75.03 9.31.03 13.94Zm39.47-15.35h1.5V95.9h5.92l.19 1.44h-7.61V81.99Zm-123.2 15.35V82.06h1.36v15.21a5.12 5.12 0 0 1-.68.16c-.2 0-.38-.06-.67-.1Zm119.47 0h-1.31V82.02c.41-.03.83-.03 1.31-.06v15.38ZM317.6 80.27c.39-.57.84-1.08 1.16-1.7.58-1.08 1.41-1.4 2.7-.98a13.58 13.58 0 0 1-2.7 2.87c-.22.2-.7.1-1.06.13a3.73 3.73 0 0 0-.1-.32Z" class="fills"/>
  </g>
</svg>
