<svg xmlns="http://www.w3.org/2000/svg" fill="none" viewBox="0 0 358 100">
  <g fill="#000">
    <path fill="#474747" d="M56.58 11.07C52.78 7.34 49.18 3.8 45.6.25c.06-.12.06-.15.1-.19.03-.03.06-.06.1-.06 18.38.03 36.76 0 55.17 0 .23 0 .46.03.75.06v53.31A3811.76 3811.76 0 0 0 90 41.9c-1.24 9.7-5.85 17.13-14.2 22.1a28.41 28.41 0 0 1-18.83 3.8c-13.61-1.81-24.43-12.82-25.14-26.95a27.4 27.4 0 0 1 6.53-19.46c4.64-5.65 10.68-9 18.22-10.3Z" class="fills"/>
    <path fill="#9fd" d="M66.35 99.99c15.5-7.63 26.73-19.37 35.24-34.3.03.48.07.64.07.8v23.45c0 3.8-1.73 6.66-4.97 8.64a9.52 9.52 0 0 1-4.81 1.37c-8.54.07-17.02.04-25.53.04Zm-66.28-67c-.04-.54-.07-.83-.07-1.12V10.43c0-2.07.42-4.05 1.6-5.8C3.5 1.79 6.23.16 9.67.13c7.87-.1 15.7-.03 23.65.13l-1.17.67A88.2 88.2 0 0 0 14.97 13.3C9.07 18.82 4.06 25.01.52 32.25c-.1.16-.2.36-.46.74ZM24.8 99.95c-.42.04-.61.04-.78.04-4.6 0-9.22.03-13.83 0a9.91 9.91 0 0 1-8.93-5.1A9.82 9.82 0 0 1 0 89.74V76.81c0-.28.03-.57.07-1.11A58.39 58.39 0 0 0 24.8 99.95Z" class="fills"/>
    <path fill="#f5f5f5" d="M216.6 34.27c-.07 7.1-.79 13.23-3.06 19.1-1.66 4.28-4.06 8.08-7.7 11.01-5.16 4.18-11.14 5.59-17.67 4.88-8.28-.86-13.9-5.52-17.7-12.54-2.43-4.53-3.67-9.4-4.25-14.45a49.5 49.5 0 0 1 1.4-19.4c1.55-5.51 4.12-10.52 8.4-14.51 4.94-4.63 10.89-6.57 17.7-6.06 8.2.64 13.97 4.85 17.9 11.7 2.8 4.89 4.13 10.18 4.65 15.7.2 1.82.26 3.64.32 4.57Zm-14.85 1.53c0-1.7.1-3.39-.03-5.04a39.2 39.2 0 0 0-.82-5.14c-.61-2.87-1.59-5.62-3.47-7.98-1.6-2.04-3.67-3.22-6.33-3.12-2.86.1-4.9 1.6-6.5 3.8a18.18 18.18 0 0 0-2.8 6.37 47.66 47.66 0 0 0-.48 20.33c.59 3.22 1.63 6.31 3.77 8.96 3.44 4.28 9.19 4.28 12.47-.13a18.13 18.13 0 0 0 2.44-4.72c1.56-4.3 1.91-8.8 1.75-13.33ZM355.7 68.43h-14.38l-3.54-15.09c-4.62-.06-9.23 0-13.97-.03-1.1 5.07-2.2 10.02-3.31 15.1h-14.07c5.36-21.8 10.72-43.5 16.05-65.25h17.64c5.2 21.7 10.36 43.39 15.58 65.27ZM330.91 15.9h-.2c-1.68 8.61-3.37 17.23-5.1 25.97h10.43a5820.12 5820.12 0 0 1-5.13-25.97Zm-108.7 50 2.34-12.4c.52.22.97.37 1.4.57a28.33 28.33 0 0 0 11.53 2.65c1.49 0 3.05-.16 4.45-.61 4.58-1.44 6.07-6.76 2.85-10.27a17.93 17.93 0 0 0-3.9-3c-2.53-1.54-5.22-2.78-7.76-4.31a23.6 23.6 0 0 1-7.7-7.43c-5.32-8.24-2.66-22.24 9.13-27 4.71-1.88 9.58-2.13 14.55-1.59a24.4 24.4 0 0 1 8.97 2.65c-.85 3.99-1.7 7.97-2.57 12.15a39.92 39.92 0 0 1-1.43-.6 22.55 22.55 0 0 0-10.13-1.98 9.3 9.3 0 0 0-4.32 1.18 5.48 5.48 0 0 0-1.3 8.55 11 11 0 0 0 2.57 2.04 79.9 79.9 0 0 0 5.42 2.94c2.96 1.5 5.81 3.16 8.25 5.45 4.77 4.53 6.43 10.15 5.78 16.5a18.5 18.5 0 0 1-5.94 12.15c-3.09 2.84-6.8 4.4-10.88 5.17a35.27 35.27 0 0 1-18.45-1.56c-.62-.23-1.2-.51-1.79-.77-.39-.06-.68-.25-1.07-.48Zm-63.04-10.78 1.76 11.96c-.52.23-.95.45-1.43.6-7.21 2.15-14.49 2.47-21.67.04-7.37-2.49-12.18-7.66-15.16-14.58a38.17 38.17 0 0 1-2.93-12.98 47.1 47.1 0 0 1 1.73-16.75c2.1-6.96 5.94-12.73 12.24-16.75a27.67 27.67 0 0 1 13.93-4.3c3.8-.17 7.57.02 11.2 1.17.92.29 1.8.67 2.8 1.05l-2.5 12.1-1.37-.48a19.92 19.92 0 0 0-9.93-1.15 13.95 13.95 0 0 0-10.14 6.54 21.6 21.6 0 0 0-3.15 9.5c-.52 4.85-.48 9.67 1.01 14.4.3.95.65 1.88 1.1 2.77 2.83 5.93 8.06 8.61 14.55 8.36 2.6-.13 5.17-.58 7.96-1.5Zm132.7 13.3h-13.8c-.23-1.72-.06-3.44-.1-5.13-.03-1.73 0-3.48 0-5.2V16.2h-13.73v-13h41.47v12.95c-4.55.16-9.1-.03-13.8.1-.04 17.42-.04 34.74-.04 52.2Z" class="fills"/>
    <path fill="#9fd" d="M292.1 86.17v11.17h-1.49V82.09c.1-.03.16-.1.26-.13l10.3 11.64c.45-1.46.19-2.74.22-3.95.04-1.25 0-2.49 0-3.7v-3.9h1.43v15.6l-2.76-3.02c-.88-.96-1.72-1.95-2.6-2.9-.81-.93-1.65-1.86-2.5-2.82l-2.53-2.87c-.1.04-.2.1-.33.13Zm-13.12 11.65c-4.68 0-8.31-3.48-8.34-8.01a8.17 8.17 0 0 1 8.21-8.33 8.17 8.17 0 1 1 .13 16.34Zm6.66-8.17a6.6 6.6 0 0 0-6.79-6.64c-3.77.04-6.66 3-6.62 6.83a6.59 6.59 0 0 0 6.72 6.54 6.57 6.57 0 0 0 6.7-6.73Zm-76.48.1a8.08 8.08 0 0 1-8.25 8.07c-4.68 0-8.45-3.64-8.38-8.14a8.2 8.2 0 0 1 8.37-8.17 8.1 8.1 0 0 1 8.25 8.23Zm-1.6 0a6.64 6.64 0 0 0-6.69-6.77 6.65 6.65 0 0 0-6.75 6.7 6.54 6.54 0 0 0 6.6 6.67 6.56 6.56 0 0 0 6.84-6.6Zm125.2 7.65V82c1.76-.1 3.51-.26 5.2.15 2.86.7 3.8 3.93 1.82 6.1-.2.22-.45.38-.75.67.3.19.52.35.78.47a3.84 3.84 0 0 1 2.28 4.15c-.2 1.82-1.27 2.97-3 3.57-.41.16-.87.26-1.32.3h-5Zm1.5-1.37c1.43-.1 2.7-.06 3.9-.26a2.8 2.8 0 0 0 2.37-2.55c.1-1.21-.69-2.36-1.95-2.87-1.4-.54-2.83-.45-4.32-.32v6Zm.06-12.57v5.07c1.14-.12 2.15-.16 3.09-.38a2.43 2.43 0 0 0 1.82-2.58c-.1-1.15-.85-1.92-2.18-2.08-.88-.13-1.78-.03-2.73-.03Zm-121.66-1.44c2.08 0 4.1-.12 6.1.04a3.76 3.76 0 0 1 3.61 3.86c.03 2.13-1.2 3.6-3.4 4.05-.6.13-1.18.19-1.96.35a788.14 788.14 0 0 0 5.4 6.89c-1.1.38-1.79.2-2.4-.67-1.4-1.88-2.87-3.7-4.33-5.52-.35-.45-.65-1.05-1.59-.57v6.89h-1.3c-.39-.32-.45-13.12-.13-15.32Zm1.47 6.67c1.65.1 3.2.26 4.74-.16a2.53 2.53 0 0 0 1.91-2.52 2.5 2.5 0 0 0-1.91-2.4c-1.56-.34-3.15-.21-4.78-.12.03 1.79.03 3.45.03 5.2Zm53.81-3.89c-.39.26-.68.51-1.1.8a7.22 7.22 0 0 0-6.3-2.56 6.8 6.8 0 0 0-4.52 2.11 6.7 6.7 0 0 0-.06 9.06c2.72 2.94 6.75 2.87 10.97-.19.2.13.4.22.59.38.16.13.26.29.39.42-2.3 3.22-7.08 3.54-10.04 2.52-3.31-1.15-5.32-4.28-5.23-8.04a7.93 7.93 0 0 1 5.78-7.37c3.28-1.02 7.64-.1 9.52 2.87Zm54.82-2.84c2.4 5.07 4.84 10.18 7.24 15.28-1.5.26-1.5.29-2.07-.86l-1.99-4.05h-6.23c-.65 0-.84.41-1.07.9-.68 1.36-1.33 2.74-2.02 4.14h-1.69l7.38-15.35c.16-.06.29-.06.45-.06Zm-.03 3.51h-.36c-.81 1.72-1.65 3.41-2.56 5.3h5.42l-2.5-5.3Zm-85.51-3.67 7.37 15.5c-.59.07-1 .1-1.4.13-.16-.16-.29-.25-.32-.38-.65-1.27-1.27-2.58-1.92-3.86-.23-.48-.45-.86-1.07-.86-2.05.03-4.13 0-6.2 0l-2.47 5.04h-1.4c.13-1.08 6.24-13.97 7.4-15.57Zm-2.86 9.03c1.88.03 3.54.16 5.42-.1-.9-1.88-1.65-3.6-2.73-5.52-.94 1.98-1.75 3.7-2.7 5.62Zm-106.95-8.9c2.4 5.07 4.8 10.14 7.3 15.38l-1.58.1c-.85-1.73-1.66-3.36-2.5-5.11h-6.18c-.61 0-.87.35-1.1.83a246.82 246.82 0 0 1-2.05 4.2h-1.69l7.41-15.37c.13-.03.26-.03.39-.03Zm-.2 3.19-2.72 5.65h5.39a652.1 652.1 0 0 0-2.66-5.65ZM161 88.3h7.21v1.43H161v6.16h7.14c.06.51.1.9.13 1.37h-8.84V82.15c1.04-.32 6.4-.41 8.77-.13v1.34h-7.24a240.7 240.7 0 0 1 .03 4.95Zm-14.32 6.35 1.2-.74c.16.13.3.2.39.32.52.55.94 1.18 1.53 1.63 1.1.83 2.76.6 3.73-.35.98-.99 1.07-2.33.07-3.48-.65-.76-1.43-1.4-2.18-2.04-.78-.7-1.69-1.28-2.44-2.01-1.55-1.53-1.68-3.76-.35-5.2a4.07 4.07 0 0 1 5.36-.38c.58.44 1.04 1.02 1.65 1.6l-1.3 1.01c-.35-.41-.65-.83-1-1.18a2.58 2.58 0 0 0-2.24-.67c-1.34.2-2.15 1.37-1.7 2.59.23.6.72 1.18 1.2 1.66.63.57 1.37 1.02 2.02 1.56.65.54 1.33 1.05 1.92 1.69 1.78 1.95 1.82 4.3.06 5.97a4.71 4.71 0 0 1-6.43-.07c-.52-.54-.9-1.18-1.5-1.91Zm33.9-.03c.5-.3.82-.48 1.14-.7.16.12.3.19.4.31.41.48.77 1.02 1.29 1.44a3 3 0 0 0 4-.2c1.04-1.01 1.07-2.35-.04-3.6-.65-.73-1.43-1.37-2.2-2.04-.78-.7-1.7-1.28-2.4-2-1.47-1.48-1.57-3.58-.37-4.99a4.03 4.03 0 0 1 5.2-.67c.68.45 1.23 1.12 1.92 1.76l-1.34 1.05c-.35-.41-.64-.83-1-1.18a2.58 2.58 0 0 0-2.24-.67c-1.33.2-2.18 1.37-1.7 2.58.3.7.85 1.34 1.44 1.85.84.77 1.82 1.4 2.73 2.14.39.32.74.67 1.07 1.06 1.65 1.88 1.65 4.14.06 5.74a4.76 4.76 0 0 1-6.2.35c-.26-.22-.55-.45-.75-.73-.3-.45-.58-.9-1-1.5Zm-10.94-.07c.49-.25.81-.45 1.1-.6.65.67 1.17 1.34 1.82 1.85.98.76 2.37.7 3.38 0 .91-.61 1.4-1.7 1.04-2.72a4.62 4.62 0 0 0-1.1-1.72c-.85-.83-1.82-1.56-2.73-2.33-.49-.41-1.04-.8-1.46-1.27-1.34-1.4-1.47-3.51-.33-4.88a3.97 3.97 0 0 1 4.94-.9c.81.45 1.46 1.18 2.27 1.85-.49.42-.78.7-1.14 1-.19-.14-.32-.17-.42-.26-.42-.35-.78-.8-1.2-1.12-.97-.64-2.34-.51-3.05.22-.78.8-.78 1.98.1 2.97.45.51 1.04.93 1.55 1.37.98.8 2.02 1.5 2.9 2.4 2.04 2.04 2.04 4.53.1 6.25a4.73 4.73 0 0 1-6.63-.54 8.1 8.1 0 0 1-.65-.83c-.2-.16-.3-.39-.49-.74ZM144.53 84l-1.24 1c-.36-.46-.62-.93-1-1.19a4.09 4.09 0 0 0-1.76-.67c-1.82-.13-2.83 1.6-1.88 3.13.29.5.74.92 1.2 1.3.68.58 1.46 1.09 2.14 1.63.59.48 1.17.96 1.66 1.53 1.72 1.95 1.69 4.18-.03 5.84a4.73 4.73 0 0 1-6.2.2 7.17 7.17 0 0 1-.85-.87c-.26-.35-.49-.73-.81-1.21l1.04-.8c.19.16.32.22.42.35.42.48.78 1.02 1.3 1.44 1.17.96 2.95.86 3.96-.2.97-.98 1.04-2.45 0-3.6-.85-.92-1.85-1.66-2.8-2.49-.61-.5-1.26-.99-1.81-1.53a3.75 3.75 0 0 1-.46-4.88 4.02 4.02 0 0 1 5.04-.96 5.32 5.32 0 0 1 2.07 1.98Zm165.86 13.34h-1.5V83.46h-3.44a14.72 14.72 0 0 0-.2-1.21c.46-.42 5.69-.51 8.58-.23.03.39.03.77.07 1.38h-3.54c.03 4.75.03 9.31.03 13.94Zm39.91-15.35h1.53V95.9h5.98l.19 1.44h-7.7V81.99ZM225.72 97.34V82.06h1.36v15.21a5.3 5.3 0 0 1-.68.16c-.2 0-.39-.06-.68-.1Zm120.82 0h-1.34V82.02c.43-.03.85-.03 1.34-.06v15.38ZM321.2 80.27c.4-.57.85-1.08 1.17-1.7.59-1.08 1.43-1.4 2.73-.98a13.67 13.67 0 0 1-2.73 2.87c-.23.2-.71.1-1.07.13a4.1 4.1 0 0 0-.1-.32Z" class="fills"/>
  </g>
</svg>
