<svg width="144" height="144" viewBox="0 0 144 144" fill="none" xmlns="http://www.w3.org/2000/svg">
<path d="M72 0C63.769 0 57 6.76903 57 15V18H37.5C30.057 18 24 24.057 24 31.5V118.5C24 125.943 30.057 132 37.5 132H106.5C113.943 132 120 125.943 120 118.5V31.5C120 24.057 113.943 18 106.5 18H87V15C87 6.76903 80.231 0 72 0ZM72 9C75.367 9 78 11.633 78 15V30H66V15C66 11.633 68.633 9 72 9ZM96.0059 57C97.1571 57 98.3085 57.4394 99.1875 58.3184C100.946 60.0764 100.948 62.9236 99.1934 64.6816L69.1934 94.6816C68.3144 95.5606 67.1637 96 66.0117 96C64.8597 96 63.7091 95.5606 62.8301 94.6816L44.8301 76.6816C43.0721 74.9236 43.0721 72.0764 44.8301 70.3184C46.5881 68.5604 49.4354 68.5604 51.1934 70.3184L66.0117 85.1367L92.8242 58.3184C93.7032 57.4394 94.8546 57 96.0059 57Z" fill="#5EA8B3"/>
</svg>
