<svg width="144" height="144" viewBox="0 0 144 144" fill="none" xmlns="http://www.w3.org/2000/svg">
<path d="M37.5 15C30.057 15 24 21.057 24 28.5V81H46.6875C52.0125 81 56.4932 84.9864 57.1172 90.2754C58.0022 97.8114 64.404 103.5 72 103.5C79.596 103.5 85.9978 97.8114 86.8828 90.2754C87.5068 84.9864 91.9845 81 97.3125 81H120V28.5C120 21.057 113.943 15 106.5 15H37.5ZM49.5 39H76.5C78.984 39 81 41.016 81 43.5C81 45.984 78.984 48 76.5 48H49.5C47.016 48 45 45.984 45 43.5C45 41.016 47.016 39 49.5 39ZM94.5 39C96.984 39 99 41.016 99 43.5C99 45.984 96.984 48 94.5 48C92.016 48 90 45.984 90 43.5C90 41.016 92.016 39 94.5 39ZM49.5 60H76.5C78.984 60 81 62.016 81 64.5C81 66.984 78.984 69 76.5 69H49.5C47.016 69 45 66.984 45 64.5C45 62.016 47.016 60 49.5 60ZM94.5 60C96.984 60 99 62.016 99 64.5C99 66.984 96.984 69 94.5 69C92.016 69 90 66.984 90 64.5C90 62.016 92.016 60 94.5 60ZM22.5 87C20.016 87 18 89.016 18 91.5V109.5C18 120.252 26.748 129 37.5 129H106.5C117.252 129 126 120.252 126 109.5V91.5C126 89.016 123.984 87 121.5 87H97.3125C95.0295 87 93.1088 88.7047 92.8418 90.9727C91.5998 101.536 82.641 109.5 72 109.5C61.359 109.5 52.4031 101.536 51.1641 90.9727C50.8971 88.7047 48.9705 87 46.6875 87H22.5Z" fill="#5EA8B3"/>
</svg>
