<svg width="144" height="144" viewBox="0 0 144 144" fill="none" xmlns="http://www.w3.org/2000/svg">
<path d="M127.46 39C124.522 39 121.298 40.9288 114.442 44.4778C108.763 47.421 103.511 50.2185 100.175 52.2587C100.465 53.5103 100.636 54.8076 100.636 56.1449C100.636 65.6003 92.9275 73.2898 83.4546 73.2898H61.9773C59.6062 73.2898 57.6819 71.3724 57.6819 69.0036C57.6819 66.6347 59.6062 64.7174 61.9773 64.7174H83.4546C88.191 64.7174 92.0455 60.8712 92.0455 56.1449C92.0455 53.5817 90.8886 51.3043 89.0959 49.7298C87.0599 48.3868 84.643 47.5724 82.0228 47.5724H69.4428H67.7046C67.6216 47.5724 67.5442 47.5524 67.4612 47.5467C59.9127 47.4296 56.2873 46.6523 53.1001 45.9523C50.2021 45.315 47.4644 44.715 42.8683 44.715C21.8721 44.715 9.88498 70.4352 9.38671 71.5296C8.73953 72.9469 8.91421 74.5985 9.83916 75.8501L29.8846 102.979C30.7007 104.085 31.9865 104.708 33.3324 104.708C33.6045 104.708 33.8736 104.682 34.1457 104.631C35.7665 104.322 37.078 103.099 37.499 101.507C37.7252 100.664 39.913 93.2922 47.6592 93.2922C53.249 93.2922 59.0307 94.0123 64.6233 94.7066C70.3191 95.4181 76.2125 96.1497 82.0228 96.1497C89.935 96.1497 95.6308 90.0947 112.091 73.2898C133.001 51.9415 135 50.0756 135 45.8437C135 42.1804 131.778 39 127.46 39Z" fill="#5EA8B3"/>
</svg>
