<svg width="144" height="144" viewBox="0 0 144 144" fill="none" xmlns="http://www.w3.org/2000/svg">
<path d="M129.497 14.5029C129.497 14.5029 86.3999 14.3998 52.7999 47.9998C51.2486 49.5511 49.8979 51.2399 48.6749 52.9873C42.7177 52.511 33.5988 52.6666 28.9312 57.3373C18.0352 68.2333 14.3999 86.3998 14.3999 86.3998L38.3999 82.9686V91.1998L52.7999 105.6H61.0312L57.5999 129.6C57.5999 129.6 75.7664 125.965 86.6624 115.069C91.3331 110.401 91.4887 101.282 91.0124 95.3248C92.7598 94.1019 94.4486 92.7511 95.9999 91.1998C129.6 57.5998 129.497 14.5029 129.497 14.5029ZM91.1999 43.1998C96.5039 43.1998 100.8 47.4958 100.8 52.7998C100.8 58.1038 96.5039 62.3998 91.1999 62.3998C85.8959 62.3998 81.5999 58.1038 81.5999 52.7998C81.5999 47.4958 85.8959 43.1998 91.1999 43.1998ZM34.5562 95.9811C32.7322 96.4611 31.0036 97.3773 29.578 98.8029C23.0212 105.36 24.0655 119.925 24.0655 119.925C24.0655 119.925 38.5348 121.056 45.178 114.412C46.6036 112.987 47.5199 111.249 47.9999 109.425L45.8062 107.231C45.5902 107.538 45.4564 107.895 45.178 108.169C40.498 112.849 33.478 110.512 33.478 110.512C33.478 110.512 31.137 103.492 35.8218 98.8123C36.1002 98.5339 36.4427 98.405 36.7499 98.1842L34.5562 95.9811Z" fill="#5EA8B3"/>
</svg>
